<svg width="225" height="270" fill="none" xmlns="http://www.w3.org/2000/svg"><path d="M153.571 241.217s-21.961 27.297 58.748 13.992c0 0 7.873-16.645-29.638-19.647" fill="#1A1818"/><path d="M153.571 241.217s-21.961 27.297 58.748 13.992c0 0 7.873-16.645-29.638-19.647" stroke="#1A1818" stroke-miterlimit="10"/><path d="M84.247 51.028S51.232 22.803 17.13 77.104C-16.973 131.406 6.4 232.492 64.874 229.217c0 0 47.306 10.5 111.504-18.183 0 0-9.692-116.433-36.163-129.91-26.47-13.477-55.968-30.096-55.968-30.096Z" fill="#fff" stroke="#1A1818" stroke-miterlimit="10"/><path d="M89.565 119.017s-.325 25.382 31.208 38.751c0 0 10.234 4.707 13.992 12.828 3.759 8.122 9.229 70.164 9.229 70.164s25.007 7.467 30.369-6.996c5.361-14.463-10.717-83.952-10.717-83.952a29.657 29.657 0 0 0-1.997-7.321c-3.612-9.19-13.642-24.683-41.035-32.436-40.437-11.448-30.369 8.943-30.369 8.943" fill="#fff"/><path d="M89.565 119.017s-.325 25.382 31.208 38.751c0 0 10.234 4.707 13.992 12.828 3.759 8.122 9.229 70.164 9.229 70.164s25.007 7.467 30.369-6.996c5.361-14.463-10.717-83.952-10.717-83.952a29.657 29.657 0 0 0-1.997-7.321c-3.612-9.19-13.642-24.683-41.035-32.436-40.437-11.448-30.369 8.943-30.369 8.943" stroke="#1A1818" stroke-miterlimit="10"/><path d="M87.564 32.787s-1.99-3.981-3.37-.852c-1.38 3.129-.936 5.75 1.704 6.576 2.64.827 2.658-1.54 2.658-1.54s3.384 12.276 18.184 7.913c8.001-2.353 4.833-9.337 4.795-17.776-.044-8.943-.897-11.372-.897-11.372l-21.624-3.492-3.892 15.754-.776 2.111.98-.852 2.238 3.53Z" fill="#fff" stroke="#1A1818" stroke-miterlimit="10"/><path d="M127.101 251.285s-21.955 27.297 58.747 13.992a9.69 9.69 0 0 0-.362-7.995c-2.372-4.719-9.54-10.074-29.256-11.651" fill="#1A1818"/><path d="M127.101 251.285s-21.955 27.297 58.747 13.992a9.69 9.69 0 0 0-.362-7.995c-2.372-4.719-9.54-10.074-29.256-11.651" stroke="#1A1818" stroke-miterlimit="10"/><path d="M83.953 31.922s-7.88-6.901-1.234-23.628C89.17-7.91 97.22 10.202 115.06 3.13c1.762-.694 4.064-.49 5.031 1.132.967 1.622 1.857 5.088-1.323 8.821-13.719 15.996-29.555-.242-29.555-.242s3.428 11.124-5.26 19.08Z" fill="#1A1818" stroke="#1A1818" stroke-miterlimit="10"/><path d="M93.227 24.9s2.315-3.98 6.996-1.443l-6.996 1.444Z" fill="#fff"/><path d="M93.57 25.099c.106-.182.231-.35.376-.503.335-.39.73-.725 1.17-.992 1.565-.941 3.371-.636 4.916.197.452.242.853-.445.401-.686a6.028 6.028 0 0 0-4.68-.668 5.336 5.336 0 0 0-2.456 1.692c-.152.175-.29.362-.413.56a.4.4 0 0 0 .687.4Z" fill="#1A1818"/><path d="M104.496 23.547s1.806-3.981 5.463-1.443l-5.463 1.443Z" fill="#fff"/><path d="M104.84 23.744c.183-.389.426-.747.718-1.062a2.82 2.82 0 0 1 2.214-1.024c.721.076 1.407.349 1.984.788.426.293.827-.4.407-.686a3.987 3.987 0 0 0-3.714-.636 4.453 4.453 0 0 0-2.01 1.755c-.105.16-.201.325-.286.496-.21.464.477.871.687.4v-.031Z" fill="#1A1818"/><path d="m104.861 45.603-.21 3.765s5.508 8.11 4.407 11.5c-1.1 3.389-7.568 6.613-7.568 6.613s-8.77-6.817-9.012-7.142c-.242-.324-1.38-7.2-1.38-7.2l.566-3.98 1.596-1.52.776-3.543s3.479 2.493 10.825 1.507Z" fill="#fff" stroke="#1A1818" stroke-miterlimit="10"/><path d="M98.524 28.73a1.126 1.126 0 1 0 0-2.251 1.126 1.126 0 0 0 0 2.251ZM108.134 27.603a1.126 1.126 0 1 0-.001-2.251 1.126 1.126 0 0 0 .001 2.251Z" fill="#1A1818" stroke="#1A1818" stroke-width=".25" stroke-miterlimit="10"/><path d="M103.531 27.756a6.36 6.36 0 0 0 1.793 3.225c.719.776 1.794 1.43 1.768 2.614a2.205 2.205 0 0 1-1.119 1.787c-.438.205-.93.267-1.406.178a2.944 2.944 0 0 1-.775-.19c-.077 0-.153-.09-.229-.115-.077-.026-.109-.147-.039 0-.184-.471-.954-.267-.769.21.324.814 1.762.922 2.48.884a2.829 2.829 0 0 0 2.341-4.07 6.22 6.22 0 0 0-1.336-1.52 8.723 8.723 0 0 1-1.215-1.47 5.821 5.821 0 0 1-.591-1.177l-.095-.33c0-.058-.045-.274 0-.051-.07-.503-.865-.509-.795 0l-.013.025Z" fill="#1A1818"/><path d="M98.023 37.793c.109.216 5.521 5.088 10.558.382l-10.558-.382Z" fill="#fff"/><path d="M97.68 37.996c.316.386.7.712 1.132.96a9.875 9.875 0 0 0 2.595 1.272 7.383 7.383 0 0 0 7.454-1.787c.375-.35-.185-.91-.56-.56a6.616 6.616 0 0 1-6.799 1.546 9.079 9.079 0 0 1-2.251-1.151 6.944 6.944 0 0 1-.636-.483l-.191-.178c-.051-.051-.102-.134-.045 0a.4.4 0 0 0-.687.4l-.012-.019Z" fill="#1A1818"/><path d="M72.665 119.556c5.59-1.024 15.41 0 26.387.236 4.122.089 8.408.057 12.721-.236 15.696-1.087 13.858-3.682 13.858-4.006 0-.325-.299-12.167-.299-12.167s12.72-3.632 22.572-1.272c0 0-10.946-43.986-17.846-45.608-6.901-1.622-12.18-.636-16.81-2.677-4.63-2.042-6.169-4.796-7.467-5.038-1.297-.241-1.138.732-1.138.732a13.99 13.99 0 0 1 .242 11.69c-2.761 6.252-2.595 3.25-2.595 3.25s-1.953-8.523-6.742-9.986c0 0-3.498-1.653-2.843-4.452.655-2.798-1.558-1.679-1.997-1.272-.8.602-1.633 1.16-2.493 1.673l-6.36 1.056s-9.813-1.781-16.892 7.587c-7.079 9.369-8.783 26.91-8.783 26.91a52.953 52.953 0 0 1 20.988 2.06l-6.424 26.356 1.813 4.789.108.375Z" fill="#fff" stroke="#1A1818" stroke-miterlimit="10"/><path d="M89.798 50.03s-5.362 12.904.566 17.617c5.927 4.712-1.54-9.502 10.392-3.658l1.272 1.788s-2.022 16.968-.56 19.162M104.98 65.693c.974-.324 4.224-6.493 7.467-2.677 3.244 3.816-.445-9.095-2.945-11.366M105.248 69.312a1.24 1.24 0 1 0 0-2.48 1.24 1.24 0 0 0 0 2.48Z" stroke="#1A1818" stroke-miterlimit="10"/><path d="m127.632 80.597-10.176 5.889-.49-13.782a1.548 1.548 0 0 1 .954-1.488l8.16-3.371a.814.814 0 0 1 1.119.725l.433 12.027Z" fill="#2CE2A2" stroke="#1A1818" stroke-miterlimit="10"/><path d="M124.469 99.389c.159.407.464 4.337.464 4.337l-.464-4.337Z" fill="#fff"/><path d="M124.469 99.389c.159.407.464 4.337.464 4.337" stroke="#1A1818" stroke-miterlimit="10"/><path d="M69.366 128.76s-.33 25.383 31.208 38.751c0 0 10.227 4.707 13.961 12.829 3.733 8.121 9.26 70.15 9.26 70.15s25.007 7.467 30.363-6.996c5.355-14.462-10.717-83.952-10.717-83.952a29.42 29.42 0 0 0-1.991-7.32c-3.619-9.19-13.648-24.683-41.041-32.436-40.43-11.448-30.363 8.942-30.363 8.942" fill="#fff"/><path d="M69.366 128.76s-.33 25.383 31.208 38.751c0 0 10.227 4.707 13.961 12.829 3.733 8.121 9.26 70.15 9.26 70.15s25.007 7.467 30.363-6.996c5.355-14.462-10.717-83.952-10.717-83.952a29.42 29.42 0 0 0-1.991-7.32c-3.619-9.19-13.648-24.683-41.041-32.436-40.43-11.448-30.363 8.942-30.363 8.942" stroke="#1A1818" stroke-miterlimit="10"/><path d="M124.913 103.491s14.367-3.632 23.004-1.361l.216.063s3.53 13.394 2.964 16.6c-.566 3.205-1.38 3.574-1.38 3.574s-3.002 1.946-15.264 4.306c-12.263 2.359-27.768 5.196-29.714 6.996-1.947 1.8-6.66 9.495-8.936 10.068-2.277.572 2.035-8.853 2.035-8.853s-3.18 9.909-4.223 11.123c-1.043 1.215-3.492.814-3.25.407s2.111-7.632 3.816-10.475c1.704-2.843-4.223 10.227-4.954 10.882-.732.655-2.252 2.067-2.233-1.405.02-3.473 1.806-10.31 3.047-11.346 1.24-1.037-5.413 13.197-6.31 11.562-.896-1.634-.387-15.938 4.643-17.56a75.362 75.362 0 0 1 26.267-14.31c15.9-4.872 10.812-3.816 10.812-3.816l-.54-6.455Z" fill="#fff" stroke="#1A1818" stroke-miterlimit="10"/><path d="M57.457 86.154c5.68-1.997 19.468 2.169 19.468 2.169l1.978-8.783c.045.534-.534 3.3-1.272 6.601l-.267 1.17c-.057.248-.115.496-.178.744-1.164 5-2.544 10.47-2.786 11.321-.1.332-.306.622-.585.827l-3.358 2.544c4.865-4.37 30.732-13.617 34.007-14.78.223-.08.425-.208.591-.376l4.452-4.496a1.61 1.61 0 0 1 .636-.4l6.729-2.15-.127 2.976a1.594 1.594 0 0 0 1.443 1.656c.27.025.542-.02.79-.13l2.238-.973a14.71 14.71 0 0 0 4.719-3.542 1.59 1.59 0 0 1 2.627 1.704l-.038.09c-1.342 2.963-10.551 8.083-8.039 6.824 2.512-1.26 8.115-6.246 8.147-6.176 1.38 2.894-3.733 8.783-3.733 8.783s3.625-5.438 3.625-3.326c0 1.94-2.118 6.36-2.468 7.047a3.07 3.07 0 0 1-.108.19c-16.135 24.372-63.352 34.739-64 35.146-6.933 4.331-8.905-30.852-3.41-56.674 5.26-24.607 21.554-22.896 23.068-22.667.085.006.17.006.255 0 .979 0 6.677-.312 8.42-2.309" fill="#fff"/><path d="M57.457 86.154c5.68-1.997 19.468 2.169 19.468 2.169l1.978-8.783c.045.534-.534 3.3-1.272 6.601l-.267 1.17c-.057.248-.115.496-.178.744-1.164 5-2.544 10.47-2.786 11.321-.1.332-.306.622-.585.827l-3.358 2.544c4.865-4.37 30.732-13.617 34.007-14.78.223-.08.425-.208.591-.376l4.452-4.496a1.61 1.61 0 0 1 .636-.4l6.729-2.15-.127 2.976a1.594 1.594 0 0 0 1.443 1.656c.27.025.542-.02.79-.13l2.238-.973a14.71 14.71 0 0 0 4.719-3.542 1.59 1.59 0 0 1 2.627 1.704l-.038.09c-1.342 2.963-10.551 8.083-8.039 6.824 2.512-1.26 8.115-6.246 8.147-6.176 1.38 2.894-3.733 8.783-3.733 8.783s3.625-5.438 3.625-3.326c0 1.94-2.118 6.36-2.468 7.047a3.07 3.07 0 0 1-.108.19c-16.135 24.372-63.352 34.739-64 35.146-6.933 4.331-8.905-30.852-3.41-56.674 5.26-24.607 21.554-22.896 23.068-22.667.085.006.17.006.255 0 .979 0 6.677-.312 8.42-2.309" stroke="#1A1818" stroke-miterlimit="10"/><path d="M206.824 147.438c0-1.406 15.697-16.345 14.507-28.251-1.189-11.906 2.379-.98 2.379-.98s.382 17.758-7.174 23.062c-7.556 5.304-9.712 6.169-9.712 6.169ZM205.409 147.006c-.324-2.487-4.217-21.217 4.98-38.433 9.196-17.217 4.223-18.724 4.223-18.724s-1.018-2.315.636-1.686c1.653.63 3.657 1.52 3.059 6.36-.598 4.84-2.328 20.46-7.416 33.505-5.088 13.044-5.482 18.978-5.482 18.978ZM177.806 77.181c.058-.216.14-.718.255-1.341.572-3.066 1.971-9.05 4.941 1.341 3.575 12.504-5.571 30.045 6.659 45.793 12.231 15.747 14.628 22.896 14.628 22.896s-2.639 3.084-2.963 1.138c-.325-1.946-28.576-29.714-26.954-49.69 1.622-19.977 3.434-20.136 3.434-20.136Z" fill="#fff" stroke="#1A1818" stroke-miterlimit="10"/><path d="M202.059 145.207c-.216-.471-16.237-36.195-1.272-68.688 14.965-32.494-4.331-46.995-4.331-46.995s-1.628-5.4 4.274-3.345c5.902 2.054 10.558 20.244 12.014 29.555 1.457 9.311-5.139 19.157-5.896 36.29-.756 17.134-3.669 14.889-4.496 33.371-.827 18.483-.293 19.812-.293 19.812Z" fill="#fff" stroke="#1A1818" stroke-miterlimit="10"/><path d="M218.895 214.36h-25.981l4.465-70.475h15.346l6.17 70.475Z" fill="#fff" stroke="#1A1818" stroke-miterlimit="10"/><path d="M28.496 75.762c1.787 0 17.865 1.787 25.987 34.916 3.613 14.736 3.689 29.93 2.659 42.25a159.249 159.249 0 0 1-4.313 26.273" fill="#fff"/><path d="M28.496 75.762c1.787 0 17.865 1.787 25.987 34.916 3.613 14.736 3.689 29.93 2.659 42.25a159.249 159.249 0 0 1-4.313 26.273" stroke="#1A1818" stroke-miterlimit="10"/><path d="M100.923 174.616s-9.031-19.582-43.732-22.368l43.732 22.368Z" fill="#fff"/><path d="M100.923 174.616s-9.031-19.582-43.732-22.368" stroke="#1A1818" stroke-miterlimit="10"/><path d="M60.46 182.127c3.41-1.621 28.933-15.156 52.954-3.816l-52.953 3.816Z" fill="#fff"/><path d="M60.46 182.127c3.41-1.621 28.933-15.156 52.954-3.816" stroke="#1A1818" stroke-miterlimit="10"/><path d="M185.252 256.837s-4.452-14.52-26.076-12.033" stroke="#fff" stroke-miterlimit="10"/></svg>