<svg xmlns="http://www.w3.org/2000/svg" width="33" height="32"><defs><linearGradient id="a" x1="27.33" x2="4.13" y1="7" y2="28" gradientUnits="userSpaceOnUse"><stop offset="0" stop-color="#5bd066"/><stop offset="1" stop-color="#27b43e"/></linearGradient></defs><path fill="#bfc8d0" d="M9.603 29.304 2.06 31l1.875-7.095A13.61 13.61 0 0 1 2.06 17c0-7.732 6.464-14 14.438-14 7.973 0 14.437 6.268 14.437 14s-6.464 14-14.437 14a14.73 14.73 0 0 1-6.895-1.696zm6.894-.458c6.747 0 12.217-5.304 12.217-11.846S23.244 5.154 16.498 5.154C9.75 5.154 4.28 10.458 4.28 17c0 2.526.816 4.867 2.205 6.79l-1.094 3.98 4.175-1.013a12.425 12.425 0 0 0 6.93 2.09z"/><path fill="url(#a)" d="M28.88 16c0 6.627-5.54 12-12.375 12-2.607 0-5.025-.782-7.02-2.116l-4.23 1.025 1.108-4.03A11.697 11.697 0 0 1 4.13 16c0-6.627 5.54-12 12.375-12S28.88 9.373 28.88 16z"/><path fill="#fff" d="M9.603 28.304 2.06 30l1.875-7.095A13.61 13.61 0 0 1 2.06 16c0-7.732 6.464-14 14.438-14 7.973 0 14.437 6.268 14.437 14s-6.464 14-14.437 14a14.73 14.73 0 0 1-6.895-1.696zm6.894-.458c6.747 0 12.217-5.304 12.217-11.846S23.244 4.154 16.498 4.154C9.75 4.154 4.28 9.458 4.28 16c0 2.526.816 4.867 2.205 6.79l-1.094 3.98 4.175-1.013a12.425 12.425 0 0 0 6.93 2.09z"/><path fill="#fff" d="M12.895 9.5c-.343-.668-.87-.609-1.402-.609-.95 0-2.433 1.105-2.433 3.16 0 1.684.765 3.528 3.345 6.286 2.489 2.662 5.759 4.039 8.474 3.992 2.715-.047 3.274-2.313 3.274-3.078 0-.339-.217-.508-.367-.554-.925-.43-2.631-1.233-3.02-1.384-.388-.15-.59.053-.717.164-.352.326-1.05 1.285-1.289 1.5-.239.216-.595.107-.743.025-.546-.212-2.025-.85-3.204-1.959-1.459-1.37-1.544-1.842-1.82-2.262-.219-.336-.058-.542.023-.632.314-.351.748-.894.942-1.164.195-.27.04-.68-.052-.934-.399-1.097-.736-2.015-1.011-2.55z"/></svg>